# xmcd
#
# Track frame offsets: 
#        187
#        8362
#        26512
#        44512
#        60150
#        72412
#        90112
#        108487
#        119662
#        136125
#        155325
#
# Disc length: 2315 seconds
#
# Revision: 3
# Processed by: cddbd v1.5.2PL0 Copyright (c) Steve Scherf et al.
# Submitted via: ExactAudioCopy v1.1
#
DISCID=7f09090b
DTITLE=Various Artist - みゆきのLovelyコレクション
DYEAR=1989
DGENRE=Anime
TTITLE0=H2O - １０％の雨予報（ＴＶサイズ）
TTITLE1=H2O - 想い出がいっぱい
TTITLE2=TAKAO and THE VIEW - ロック・オン
TTITLE3=スマート・ルッキン - ちょっとまって、Make Love
TTITLE4=ヴァージンVS - サントワマミイ
TTITLE5=H2O - １０％の雨予報
TTITLE6=河合美智子 - サマー・ホリデー
TTITLE7=ヴァージンVS - 夢のラジオシティ
TTITLE8=イミテーション - ケ・セラ・セラ
TTITLE9=小林泉美 - ジプシー・ラヴ
TTITLE10=H2O - Good-byeシーズン
EXTD=YEAR: 1989
EXTT0=
EXTT1=
EXTT2=
EXTT3=
EXTT4=
EXTT5=
EXTT6=
EXTT7=
EXTT8=
EXTT9=
EXTT10=
PLAYORDER=
